<?xml version="1.0" encoding="UTF-8" standalone="no"?>
<svg
   xmlns:dc="http://purl.org/dc/elements/1.1/"
   xmlns:cc="http://creativecommons.org/ns#"
   xmlns:rdf="http://www.w3.org/1999/02/22-rdf-syntax-ns#"
   xmlns:svg="http://www.w3.org/2000/svg"
   xmlns="http://www.w3.org/2000/svg"
   xmlns:sodipodi="http://sodipodi.sourceforge.net/DTD/sodipodi-0.dtd"
   xmlns:inkscape="http://www.inkscape.org/namespaces/inkscape"
   sodipodi:docname="fast-call.svg"
   inkscape:version="1.0 (4035a4fb49, 2020-05-01)"
   id="svg8"
   version="1.1"
   viewBox="0 0 107.88108 72.289795"
   height="72.289795mm"
   width="107.88109mm">
  <defs
     id="defs2">
    <pattern
       id="EMFhbasepattern"
       patternUnits="userSpaceOnUse"
       width="6"
       height="6"
       x="0"
       y="0" />
  </defs>
  <sodipodi:namedview
     inkscape:window-maximized="1"
     inkscape:window-y="-8"
     inkscape:window-x="-8"
     inkscape:window-height="837"
     inkscape:window-width="1600"
     fit-margin-bottom="0"
     fit-margin-right="0"
     fit-margin-left="0"
     fit-margin-top="0"
     showgrid="false"
     inkscape:document-rotation="0"
     inkscape:current-layer="layer1"
     inkscape:document-units="mm"
     inkscape:cy="272.7931"
     inkscape:cx="123.48813"
     inkscape:zoom="0.98994949"
     inkscape:pageshadow="2"
     inkscape:pageopacity="0.0"
     borderopacity="1.0"
     bordercolor="#666666"
     pagecolor="#ffffff"
     id="base" />
  <metadata
     id="metadata5">
    <rdf:RDF>
      <cc:Work
         rdf:about="">
        <dc:format>image/svg+xml</dc:format>
        <dc:type
           rdf:resource="http://purl.org/dc/dcmitype/StillImage" />
        <dc:title></dc:title>
      </cc:Work>
    </rdf:RDF>
  </metadata>
  <g
     transform="translate(-44.889691,-29.260042)"
     id="layer1"
     inkscape:groupmode="layer"
     inkscape:label="Capa 1">
    <path
       id="path41"
       d="m 88.538774,100.93243 c 0.316088,-0.61306 0.748947,-1.567788 2.149575,-4.741178 0.401912,-0.91061 0.730748,-1.82304 0.730748,-2.02763 0,-0.20459 0.158684,-0.37198 0.352632,-0.37198 0.193947,0 0.352631,-0.23441 0.352631,-0.52092 0,-0.2865 0.546481,-1.6649 1.2144,-3.06309 0.667923,-1.3982 1.142294,-2.65885 1.054161,-2.80145 -0.08813,-0.14261 -2.806814,-0.27621 -6.041511,-0.2969 -3.2347,-0.0207 -6.287284,-0.13953 -6.783518,-0.26408 -0.959552,-0.24083 -2.843533,-1.92045 -2.843533,-2.53508 0,-0.87615 -1.667171,-1.06367 -9.378563,-1.05486 -4.442186,0.005 -8.343064,-0.002 -8.668619,-0.0167 -1.598382,-0.0699 -2.332447,-2.87072 -1.055316,-4.02651 0.577478,-0.52261 2.134487,-0.5841 14.898686,-0.58841 7.839596,-0.003 14.597414,-0.097 15.01737,-0.20964 0.907533,-0.24344 1.34359,-1.63441 0.819413,-2.61384 -0.341061,-0.63727 -0.763793,-0.70017 -4.857218,-0.72263 -7.815427,-0.0429 -12.283662,-0.44991 -13.105652,-1.19379 -0.968745,-0.87671 -0.911983,-2.15073 0.142817,-3.20553 0.865551,-0.86554 0.865551,-0.86554 9.684962,-0.86554 8.569051,0 8.830544,-0.0208 9.211605,-0.73282 0.929414,-1.73662 0.941234,-1.73503 -12.962893,-1.74344 -11.962,-0.007 -13.034697,-0.0574 -13.798961,-0.64522 -1.161577,-0.89342 -1.161577,-3.08993 0,-3.98335 0.769517,-0.59187 1.918144,-0.63794 16.087561,-0.64522 15.258878,-0.008 15.258878,-0.008 15.66055,-0.88942 0.300481,-0.65948 0.300481,-1.10368 0,-1.76316 -0.401672,-0.88158 -0.401672,-0.88158 -25.208293,-0.88158 -24.806619,0 -24.806619,0 -25.573351,-0.81614 -0.988422,-1.05213 -0.999908,-2.74242 -0.02464,-3.62526 0.709606,-0.64234 1.658767,-0.67597 21.678782,-0.76803 20.184801,-0.0928 20.949614,-0.12043 21.296681,-0.76893 0.26978,-0.5041 0.221308,-0.81134 -0.193444,-1.22609 -0.484607,-0.48461 -2.329589,-0.55344 -14.835016,-0.55344 -11.229064,0 -14.379309,-0.0977 -14.738816,-0.45724 -1.221486,-1.22148 -1.016925,-3.44852 0.375012,-4.08273 0.605122,-0.27571 5.825255,-0.39687 17.09869,-0.39687 10.511776,0 16.467896,-0.12858 16.909726,-0.36504 0.773046,-0.41372 0.929442,-2.0676 0.258924,-2.73812 -0.302752,-0.30275 -2.569958,-0.42316 -7.967962,-0.42316 -6.429053,0 -7.69293,-0.0875 -8.546468,-0.5917 -1.639884,-0.9687 -1.73161,-2.81741 -0.202079,-4.07283 0.643764,-0.52839 1.617627,-0.6103 7.336617,-0.6171 5.34105,-0.006 6.647913,-0.10354 6.876316,-0.51138 0.399543,-0.71344 3.172821,-2.67015 3.784446,-2.67015 0.281157,0 0.609263,-0.15868 0.72913,-0.35263 0.140051,-0.22661 5.871824,-0.35263 16.038434,-0.35263 15.82048,0 15.82048,0 16.90721,-1.08673 1.94321,-1.94322 3.99527,-2.79222 6.74886,-2.79222 1.35,0 2.73008,0.14738 3.06687,0.3275 0.33678,0.18012 1.36546,0.6165 2.286,0.96974 0.92052,0.35323 1.67427,0.76125 1.675,0.90671 7e-4,0.14546 0.21572,0.26447 0.47777,0.26447 0.42966,0 4.83079,4.11808 5.6946,5.32836 0.35548,0.49805 1.77003,3.06296 2.40953,4.36901 0.18993,0.3879 0.48813,0.99508 0.6627,1.3493 0.17456,0.35421 0.41046,1.42997 0.52422,2.39056 0.11377,0.96059 0.34289,1.8306 0.50915,1.93336 0.39474,0.24396 0.39479,9.92009 6e-5,10.16405 -0.16623,0.10274 -0.39231,1.05959 -0.50241,2.12633 -0.11009,1.06675 -0.39089,2.53923 -0.62397,3.27219 -1.05639,3.32182 -1.46745,4.55568 -1.73623,5.21158 -0.54522,1.33049 -2.98841,6.34734 -3.17702,6.52368 -0.10372,0.097 -0.50084,0.77139 -0.8825,1.49869 -0.38165,0.7273 -0.81652,1.32237 -0.96636,1.32237 -0.14984,0 -0.27244,0.17551 -0.27244,0.39004 0,1.38819 -10.90528,12.30469 -12.29204,12.30469 -0.18915,0 -0.39681,0.11902 -0.46146,0.26448 -0.17664,0.39745 -4.4446,2.55657 -5.05361,2.55657 -0.29135,0 -0.52972,0.14727 -0.52972,0.32726 0,0.17999 -0.87277,0.4363 -1.93948,0.56958 -1.06671,0.13328 -1.93947,0.38272 -1.93947,0.55432 0,0.40405 -8.71386,0.40958 -8.96348,0.006 -0.10412,-0.16847 -0.82684,-0.40825 -1.60605,-0.53286 -0.77921,-0.1246 -2.40924,-0.75795 -3.62229,-1.40745 -2.20555,-1.18089 -2.20555,-1.18089 -3.26346,-0.52891 -0.58184,0.35859 -1.29591,0.76387 -1.58683,0.90061 -0.29092,0.13675 -0.73863,0.45587 -0.99492,0.70915 -0.25629,0.25329 -0.69267,0.46052 -0.96974,0.46052 -0.27707,0 -0.50377,0.12947 -0.50377,0.2877 0,0.15823 -0.65317,0.67396 -1.451498,1.14605 -0.798326,0.4721 -1.869445,1.13431 -2.380264,1.47158 -0.510818,0.33727 -1.166787,0.72241 -1.457708,0.85586 -0.290921,0.13344 -0.60829,0.343 -0.705263,0.46568 -0.360566,0.45613 -5.540728,3.531028 -5.948585,3.531028 -0.28955,0 -0.322912,-0.19529 -0.105423,-0.61711 z M 123.43145,89.615132 c 0.0747,-0.22424 0.40663,-0.4077 0.73753,-0.4077 0.88408,0 5.21639,-2.32044 7.45012,-3.99038 2.42994,-1.81663 6.15479,-5.57114 8.18184,-8.24701 1.97754,-2.61053 3.80764,-5.51462 3.80764,-6.04217 0,-0.22545 0.14607,-0.40991 0.32461,-0.40991 0.17854,0 0.42877,-0.47424 0.55608,-1.05385 0.1273,-0.57962 0.37794,-1.14438 0.55697,-1.25503 0.17902,-0.11064 0.3255,-0.44552 0.3255,-0.74417 0,-0.29865 0.22732,-1.04303 0.50516,-1.65419 0.80357,-1.76754 1.61062,-4.41555 1.61062,-5.28456 0,-0.4393 0.19836,-0.99704 0.44079,-1.23942 0.3207,-0.32062 0.44079,-2.20843 0.44079,-6.92877 0,-4.72007 -0.12011,-6.60833 -0.44079,-6.92931 -0.24243,-0.24268 -0.44079,-0.65622 -0.44079,-0.919 0,-0.48365 -1.0604,-2.848 -1.85754,-4.1417 -0.23901,-0.3879 -1.41545,-1.69421 -2.61431,-2.90292 -3.95183,-3.98431 -8.40929,-5.14063 -11.13991,-2.88983 -0.723,0.59596 -1.31455,1.29682 -1.31455,1.55746 0,0.26064 -0.19836,0.54018 -0.44079,0.62121 -0.65416,0.21865 -0.62128,12.81986 0.0371,14.22846 1.35247,2.8935 1.60549,3.31456 1.99173,3.31456 0.29068,0 0.49137,-1.42795 0.65495,-4.65995 0.12972,-2.56298 0.39219,-4.81629 0.58326,-5.00737 0.19108,-0.19108 0.35246,-0.75206 0.35863,-1.24662 0.006,-0.49457 0.24419,-1.20724 0.52894,-1.58372 0.46476,-0.61446 0.51927,-0.25364 0.53268,3.52632 0.0148,4.18514 0.62837,9.7322 1.13213,10.23596 0.35907,0.35908 0.33256,2.39913 -0.0441,3.39116 -0.16914,0.44551 -0.50229,1.44475 -0.74033,2.22054 -0.55733,1.81642 -2.39922,5.69857 -3.33633,7.032 -1.67515,2.38362 -4.23473,5.13379 -4.778,5.13379 -0.19737,0 -0.35886,0.15868 -0.35886,0.35263 0,0.19395 -0.24472,0.35263 -0.54383,0.35263 -0.50879,0 -0.86485,-0.22551 -2.08796,-1.32237 -0.27033,-0.24243 -0.73152,-0.44079 -1.02484,-0.44079 -0.29333,0 -0.6314,-0.15868 -0.75127,-0.35263 -0.37241,-0.60257 -3.44336,-0.38793 -5.47076,0.38238 -1.06397,0.40426 -2.25187,0.82672 -2.63976,0.93881 -0.3879,0.11208 -0.78461,0.29705 -0.88158,0.41104 -0.097,0.11399 -0.96974,0.60396 -1.93947,1.08883 -0.96974,0.48486 -1.81606,1.00059 -1.88071,1.14605 -0.0647,0.14546 -0.25691,0.26447 -0.42725,0.26447 -0.68485,0 -3.3918,3.09118 -3.93072,4.48866 -0.53302,1.38219 -0.53224,1.60369 0.0107,3.02771 0.55441,1.45402 1.46741,1.90693 1.46741,0.72793 0,-0.71518 3.00054,-3.55742 4.63681,-4.39219 1.65934,-0.84652 1.73663,-0.39257 0.21188,1.24443 -1.87748,2.01571 -2.03309,2.24786 -2.25692,3.36703 -0.11794,0.58969 -0.35263,1.15756 -0.52152,1.26195 -0.55467,0.3428 -0.32109,1.7426 0.39278,2.35383 0.38492,0.32958 1.13867,0.7041 1.675,0.83225 0.53632,0.12816 1.13382,0.35462 1.32776,0.50324 0.67616,0.51813 2.14646,0.63764 6.68165,0.5431 3.06569,-0.0639 4.61051,-0.22913 4.70175,-0.50287 z M 57.390147,74.495912 c -1.969478,-0.4798 -2.461911,-2.13529 -1.104593,-3.71348 0.811649,-0.94373 0.932227,-0.96944 4.495622,-0.95852 4.373632,0.0134 4.991986,0.31734 4.991986,2.45377 0,0.78943 -0.09946,1.53479 -0.221021,1.65635 -0.596533,0.59654 -6.384266,0.99497 -8.161994,0.56188 z m 6.481436,-32.54366 c -0.314158,-0.18356 -0.839294,-0.74291 -1.16697,-1.24301 -1.210051,-1.84677 0.566378,-3.69128 3.555034,-3.69128 1.977395,0 3.043873,0.52395 3.593396,1.76541 0.385556,0.87103 0.36243,1.15024 -0.161499,1.94986 -0.336321,0.51329 -0.990801,1.07747 -1.4544,1.25373 -1.089426,0.4142 -3.631846,0.39398 -4.365561,-0.0347 z"
       style="fill:#000000;stroke-width:0.352632" />
  </g>
</svg>
