<?xml version="1.0" encoding="UTF-8" standalone="no"?>
<svg
   xmlns:dc="http://purl.org/dc/elements/1.1/"
   xmlns:cc="http://creativecommons.org/ns#"
   xmlns:rdf="http://www.w3.org/1999/02/22-rdf-syntax-ns#"
   xmlns:svg="http://www.w3.org/2000/svg"
   xmlns="http://www.w3.org/2000/svg"
   xmlns:sodipodi="http://sodipodi.sourceforge.net/DTD/sodipodi-0.dtd"
   xmlns:inkscape="http://www.inkscape.org/namespaces/inkscape"
   sodipodi:docname="location.svg"
   inkscape:version="1.0 (4035a4fb49, 2020-05-01)"
   id="svg8"
   version="1.1"
   viewBox="0 0 105.83333 71.437497"
   height="270"
   width="400">
  <defs
     id="defs2">
    <pattern
       id="EMFhbasepattern"
       patternUnits="userSpaceOnUse"
       width="6"
       height="6"
       x="0"
       y="0" />
    <pattern
       id="EMFhbasepattern-3"
       patternUnits="userSpaceOnUse"
       width="6"
       height="6"
       x="0"
       y="0" />
  </defs>
  <sodipodi:namedview
     units="px"
     inkscape:window-maximized="1"
     inkscape:window-y="-8"
     inkscape:window-x="-8"
     inkscape:window-height="837"
     inkscape:window-width="1600"
     fit-margin-bottom="0"
     fit-margin-right="0"
     fit-margin-left="0"
     fit-margin-top="0"
     showgrid="false"
     inkscape:document-rotation="0"
     inkscape:current-layer="layer1"
     inkscape:document-units="mm"
     inkscape:cy="226.79983"
     inkscape:cx="205.05656"
     inkscape:zoom="0.7"
     inkscape:pageshadow="2"
     inkscape:pageopacity="0.0"
     borderopacity="1.0"
     bordercolor="#666666"
     pagecolor="#ffffff"
     id="base" />
  <metadata
     id="metadata5">
    <rdf:RDF>
      <cc:Work
         rdf:about="">
        <dc:format>image/svg+xml</dc:format>
        <dc:type
           rdf:resource="http://purl.org/dc/dcmitype/StillImage" />
        <dc:title></dc:title>
      </cc:Work>
    </rdf:RDF>
  </metadata>
  <g
     transform="translate(-40.827043,-5.88277)"
     id="layer1"
     inkscape:groupmode="layer"
     inkscape:label="Capa 1">
    <path
       id="path56"
       d="M 89.846718,76.165702 C 85.531274,75.376671 83.435437,74.706827 79.930919,72.996545 71.820918,69.03871 65.647166,61.506593 63.195746,52.579272 c -1.372247,-4.997303 -1.371824,-11.577922 10e-4,-16.560408 1.088226,-3.949393 3.528525,-8.85068 5.690654,-11.429558 2.640975,-3.150023 4.741917,-5.097452 7.46559,-6.920093 4.393281,-2.939917 8.884884,-4.580354 14.413687,-5.264211 4.463196,-0.55205 4.613124,-0.502598 4.130926,1.362598 -0.184149,0.712356 -0.393684,1.907225 -0.465625,2.655264 -0.130796,1.360073 -0.130796,1.360073 -0.978026,1.491427 -1.15657,0.179317 -2.883168,1.396973 -4.073939,2.873088 -1.084172,1.343985 -2.83648,4.383049 -2.676486,4.641917 0.05525,0.08945 2.234145,0.16368 4.841902,0.164943 4.741383,0.0023 4.741383,0.0023 5.968076,2.584951 0.674685,1.420456 1.257371,2.661452 1.294847,2.757768 0.03752,0.09632 -3.144898,0.17512 -7.071965,0.17512 -7.14011,0 -7.14011,0 -7.381124,1.073359 -0.672451,2.994774 -1.25544,7.11099 -1.25544,8.864101 0,0.489461 0,0.489461 10.108172,0.489461 7.023915,0 10.149885,0.06745 10.244795,0.221036 0.075,0.121569 0.18596,1.363601 0.24626,2.760068 0.10967,2.539033 0.10967,2.539033 -10.148976,2.539033 -8.698099,0 -10.275668,0.04439 -10.370622,0.291819 -0.24217,0.631085 0.408148,5.642971 1.175811,9.061746 0.241014,1.073356 0.241014,1.073356 9.887053,1.073356 9.646054,0 9.646054,0 9.885164,-1.073356 0.64879,-2.912501 0.81906,-3.851435 0.9547,-5.264575 0.081,-0.843354 0.25116,-1.600965 0.37825,-1.683578 0.12709,-0.08262 1.31497,-0.151616 2.63976,-0.153338 1.90009,-0.0025 2.43234,0.05848 2.52068,0.288689 0.12807,0.333745 -0.2589,4.511366 -0.53164,5.73944 -0.52577,2.367428 -0.85781,2.16237 3.40047,2.1001 3.803,-0.0556 3.803,-0.0556 4.3469,-1.077853 1.14865,-2.158903 2.28491,-5.738647 2.57956,-8.126865 0.14503,-1.175585 0.14503,-1.175585 -1.71857,-1.175585 -1.8636,0 -1.8636,0 -1.8636,-2.121162 0,-1.166641 0.0574,-2.408672 0.12778,-2.760069 0.12779,-0.638906 0.12779,-0.638906 1.8636,-0.638906 1.73582,0 1.73582,0 1.59265,-1.175583 -0.0787,-0.646571 -0.32834,-1.8196 -0.55465,-2.606731 -0.22633,-0.787129 -0.45421,-1.615151 -0.50644,-1.840045 -0.0522,-0.224895 0.13385,-0.837733 0.41347,-1.361867 0.27963,-0.524132 0.98259,-1.881165 1.56216,-3.015629 0.57956,-1.134464 1.13186,-2.062662 1.22731,-2.062662 0.20703,0 1.1583,1.994472 1.90147,3.986764 2.15462,5.776052 2.47278,13.124845 0.82761,19.116026 -2.4518,8.928745 -8.56449,16.391739 -16.73516,20.432008 -2.73555,1.352683 -4.74441,2.076491 -7.52914,2.712797 -1.532997,0.350288 -2.678345,0.438284 -6.271207,0.48182 -2.417612,0.02926 -4.625678,0.01123 -4.906787,-0.04023 z m 6.057401,-5.718378 c 1.746355,-0.723438 4.013264,-3.237694 5.372661,-5.958873 0.63834,-1.277809 0.63834,-1.277809 -7.034034,-1.277809 -7.672363,0 -7.672363,0 -6.977336,1.380134 1.342969,2.666792 3.417642,5.002806 5.13692,5.784023 1.029272,0.46768 2.475598,0.497635 3.501789,0.07252 z M 81.67492,65.848212 c -0.562403,-1.169544 -1.023874,-2.24144 -1.025489,-2.38201 -0.0022,-0.190338 -0.640247,-0.25556 -2.500144,-0.25556 -2.079132,0 -2.447085,0.04498 -2.197832,0.268872 1.164812,1.046119 2.926238,2.416817 3.866697,3.008983 1.332202,0.838816 2.749522,1.61059 2.824965,1.538263 0.02987,-0.02866 -0.405797,-1.009005 -0.968197,-2.178548 z m 27.49221,0.346446 c 0.33738,-0.235617 0.65943,-0.475586 0.71564,-0.533263 0.0562,-0.05767 0.72324,-0.602749 1.48227,-1.211283 0.75901,-0.608525 1.38002,-1.136349 1.38002,-1.172944 0,-0.03661 -1.10403,-0.06656 -2.45339,-0.06656 -1.82485,0 -2.45415,0.06553 -2.45634,0.25556 -0.001,0.14057 -0.46162,1.209428 -1.02224,2.375242 -0.56062,1.165822 -1.01932,2.159849 -1.01932,2.208944 0,0.116977 2.5844,-1.304742 3.37336,-1.855729 z M 78.734007,57.128276 c -0.12619,-0.451519 -0.6596,-3.575569 -0.940526,-5.508409 -0.117552,-0.80879 -0.213731,-1.92983 -0.213731,-2.491196 0,-0.561368 -0.08973,-1.256663 -0.19939,-1.545102 -0.19939,-0.524433 -0.19939,-0.524433 -4.828119,-0.524433 -4.628731,0 -4.628731,0 -4.483692,1.175585 0.271123,2.197547 1.142238,5.102735 2.222259,7.411292 0.938082,2.005166 0.509994,1.840044 4.770615,1.840044 3.494724,0 3.765213,-0.02634 3.672584,-0.357781 z m -1.282038,-16.22818 c 0.07028,-0.351397 0.127781,-1.046693 0.127781,-1.5451 0,-1.141752 0.80491,-6.636654 1.155707,-7.889699 0.09489,-0.338954 -0.146063,-0.358758 -3.731224,-0.306675 -3.83267,0.05567 -3.83267,0.05567 -4.304508,0.975703 -1.225489,2.389538 -2.341246,5.879108 -2.631176,8.229091 -0.145039,1.175583 -0.145039,1.175583 4.5553,1.175583 4.700338,0 4.700338,0 4.82812,-0.638903 z m 2.899455,-15.464622 c 0.118833,-0.08262 0.341621,-0.472216 0.495087,-0.86578 0.153466,-0.393565 0.637066,-1.438112 1.074671,-2.321212 0.437602,-0.883103 0.761284,-1.64 0.719286,-1.681997 -0.149643,-0.149644 -3.345891,1.827593 -4.672773,2.890636 -1.598685,1.280798 -2.023541,1.689159 -2.023541,1.944975 0,0.22311 4.089808,0.254083 4.40727,0.03338 z m 28.432116,18.651191 c -0.0701,-0.182691 -0.12746,-0.7835 -0.12746,-1.335134 0,-1.282708 -0.77727,-4.274776 -1.75215,-6.74488 -0.41896,-1.061529 -1.88985,-4.184112 -3.26864,-6.939069 -3.54454,-7.082314 -3.933985,-8.107876 -4.114706,-10.835822 -0.210462,-3.177025 0.775586,-5.732976 3.137166,-8.131771 1.12438,-1.1421145 1.83592,-1.6620799 3.06674,-2.2410621 1.51741,-0.7137964 1.73316,-0.7580751 4.05605,-0.8324031 2.09927,-0.06717 2.64017,-0.015576 3.7473,0.3574981 3.33109,1.1224663 5.87205,3.6713701 6.98753,7.0093521 0.40129,1.200859 0.44683,1.667114 0.3594,3.680091 -0.12936,2.978653 -0.62567,4.357793 -3.91967,10.891893 -2.80935,5.572698 -3.34289,6.739041 -4.06836,8.893551 -0.56243,1.670318 -1.13724,4.327515 -1.21624,5.622362 -0.0499,0.817797 -0.0499,0.817797 -1.4047,0.877677 -1.09845,0.04855 -1.37891,-0.0029 -1.48226,-0.272283 z m 3.57775,-21.549599 c 1.01007,-0.448126 2.2019,-1.603725 2.75346,-2.66971 0.56382,-1.089719 0.50959,-3.529173 -0.10226,-4.600113 -0.6419,-1.123538 -1.18922,-1.683418 -2.26741,-2.319512 -0.77527,-0.457392 -1.16123,-0.542775 -2.45339,-0.542749 -1.311,2.7e-5 -1.68915,0.08635 -2.60762,0.59521 -1.83297,1.015552 -2.7093,2.568802 -2.70615,4.796525 0.005,2.917513 2.24273,5.110239 5.23667,5.12938 0.81094,0.0052 1.567,-0.131828 2.14672,-0.389031 z"
       style="fill:#000000;stroke-width:0.20445" />
  </g>
</svg>
