<?xml version="1.0" encoding="UTF-8" standalone="no"?>
<svg
   xmlns:dc="http://purl.org/dc/elements/1.1/"
   xmlns:cc="http://creativecommons.org/ns#"
   xmlns:rdf="http://www.w3.org/1999/02/22-rdf-syntax-ns#"
   xmlns:svg="http://www.w3.org/2000/svg"
   xmlns="http://www.w3.org/2000/svg"
   xmlns:sodipodi="http://sodipodi.sourceforge.net/DTD/sodipodi-0.dtd"
   xmlns:inkscape="http://www.inkscape.org/namespaces/inkscape"
   inkscape:version="1.0 (4035a4fb49, 2020-05-01)"
   sodipodi:docname="minimus_logo.svg"
   id="svg8"
   version="1.1"
   viewBox="0 0 123.56584 168.92493"
   height="168.92493mm"
   width="123.56584mm">
  <defs
     id="defs2">
    <pattern
       id="EMFhbasepattern"
       patternUnits="userSpaceOnUse"
       width="6"
       height="6"
       x="0"
       y="0" />
  </defs>
  <sodipodi:namedview
     inkscape:window-maximized="1"
     inkscape:window-y="-8"
     inkscape:window-x="-8"
     inkscape:window-height="837"
     inkscape:window-width="1600"
     showgrid="false"
     inkscape:document-rotation="0"
     inkscape:current-layer="layer1"
     inkscape:document-units="mm"
     inkscape:cy="208.57025"
     inkscape:cx="-4.147698"
     inkscape:zoom="0.49497475"
     inkscape:pageshadow="2"
     inkscape:pageopacity="0.0"
     borderopacity="1.0"
     bordercolor="#666666"
     pagecolor="#ffffff"
     id="base" />
  <metadata
     id="metadata5">
    <rdf:RDF>
      <cc:Work
         rdf:about="">
        <dc:format>image/svg+xml</dc:format>
        <dc:type
           rdf:resource="http://purl.org/dc/dcmitype/StillImage" />
      </cc:Work>
    </rdf:RDF>
  </metadata>
  <g
     transform="translate(-41.970449,-65.23493)"
     id="layer1"
     inkscape:groupmode="layer"
     inkscape:label="Capa 1">
    <path
       id="path41"
       d="m 91.024294,232.32736 c 0,-1.4321 -8.277,-8.31065 -18.39335,-15.28565 -10.1163,-6.975 -21.2373,-15.3641 -24.71335,-18.6424 -6.2972,-5.93905 -6.3177,-6.0076 -5.67865,-18.9559 0.8299,-16.81435 4.66155,-61.19125 5.73445,-66.41375 0.4565,-2.22205 1.629,-3.5462 2.6056,-2.94265 1.16725,0.7214 1.3701,-2.86075 0.592,-10.455201 -1.4221,-13.8804 0.6542,-18.0266 12.50525,-24.971751 12.47005,-7.30795 25.8512,-10.06645 45.122246,-9.302 14.74735,0.58505 18.3779,1.4014 28.59005,6.42885 16.53655,8.140901 19.39075,12.308001 18.56185,27.099601 -0.48,8.562351 -0.12,11.347501 1.31265,10.158551 1.92595,-1.5984 4.69165,24.12775 7.31885,68.0795 l 0.9544,15.967 -7.90565,6.95865 c -4.34815,3.82725 -15.52585,12.11695 -24.8394,18.4215 -9.3135,6.30455 -17.26045,12.2564 -17.65985,13.22635 -0.3995,0.96995 -0.3925,-0.61725 0.015,-3.527 1.5905,-11.34835 4.0378,-44.6503 4.0651,-55.3155 0.025,-9.86435 0.4035,-11.1148 3.11485,-10.29835 1.69735,0.51115 9.7876,3.3326 17.9783,6.26995 14.2094,5.0958 17.7328,5.4996 17.7328,2.0324 0,-1.6766 -30.83645,-21.25795 -35.32525,-22.4318 -1.49745,-0.3915 -4.75565,0.88725 -7.2405,2.8418 -3.90865,3.0746 -4.6725,5.3832 -5.6647,17.1206 -1.29595,15.33085 -3.25915,19.2524 -8.1189,16.2174 -2.380896,-1.4869 -3.382546,-5.12855 -4.130396,-15.01685 -1.04025,-13.75445 -2.84415,-17.4875 -9.71205,-20.0987 -3.47645,-1.32175 -6.6971,-0.0875 -18.5894,7.12375 -19.67005,11.92765 -21.79775,13.6381 -19.6643,15.8083 1.2063,1.22705 6.56855,0.0855 16.7534,-3.5664 8.2386,-2.9541 16.29075,-5.7691 17.8937,-6.25555 2.50685,-0.7607 3.0595,1.29635 3.95155,14.70715 0.5704,8.5753 1.8609,24.6287 2.86775,35.67415 1.0069,11.0455 1.41105,20.5023 0.89815,21.0152 -0.5129,0.5129 -0.93255,-0.239 -0.93255,-1.67125 z M 64.571544,103.95811 c 0,-14.222051 5.7234,-22.248701 21.6031,-30.296652 5.5771,-2.82655 10.1402,-5.4527 10.1402,-5.83595 0,-1.35125 -16.8556,3.8269 -24.9603,7.66795 -4.5138,2.139201 -9.54095,5.363551 -11.1714,7.165201 -4.415,4.8785 -5.3652,16.0226 -1.9323,22.661151 3.89955,7.5409 6.3207,7.0193 6.3207,-1.3617 z"
       style="fill:#000000;stroke-width:1.76351" />
    <path
       transform="matrix(0.26458333,0,0,0.26458333,41.970449,65.23493)"
       id="path45"
       d="m 186.1722,631.37109 c -0.57746,-6.3103 -25.61421,-27.1424 -75.16251,-62.53978 C 37.561775,516.35999 6.0384867,489.39156 2.7260497,476.19376 -0.4867867,463.3928 4.934744,372.18411 16.111977,250.99665 c 6.681392,-72.44198 8.33425,-80.8122 15.957882,-80.8122 5.750311,0 6.508708,-7.29336 3.983441,-38.30805 C 34.789383,116.35326 34.360305,98.809965 35.099793,92.891301 37.869466,70.723576 52.643609,53.90174 86.211253,34.695805 132.77299,8.055218 190.65721,-2.5432318 264.03611,2.1365372 c 45.47935,2.9004639 60.51862,6.7009156 96.48126,24.3809878 60.65532,29.81956 71.29964,45.231863 69.22291,100.230365 -1.19372,31.61333 -0.28559,39.57464 4.66173,40.8684 4.32745,1.13165 6.3579,9.42301 10.77126,43.98441 5.66323,44.34952 13.85105,148.1138 18.33303,232.33509 0.65046,12.22284 1.63004,25.8599 2.17686,30.30457 l 0.99419,8.08122 -22.39203,19.1929 c -26.90268,23.05912 -54.99509,44.17325 -104.98115,78.90338 -20.55661,14.28265 -43.19611,30.66334 -50.31,36.40154 l -12.93434,10.43307 1.2993,-9.47935 c 5.42496,-39.57945 13.02802,-140.03009 15.20094,-200.83303 1.03661,-29.00635 2.42085,-45.65672 3.9204,-47.15627 2.69729,-2.69729 -2.50508,-4.23336 65.7005,19.39913 54.82944,18.99784 70.89568,22.46939 75.41076,16.29465 1.50024,-2.0517 2.72769,-4.4303 2.72769,-5.2858 0,-2.94314 -9.15331,-10.14141 -35.35534,-27.80384 -52.24634,-35.21853 -93.53113,-58.76185 -103.04283,-58.76185 -8.19656,0 -18.1901,5.06006 -28.18008,14.26851 -11.61478,10.70612 -14.05862,18.77679 -18.31445,60.48278 -3.60487,35.32679 -6.92314,52.00144 -11.84241,59.50918 -7.16994,10.9427 -21.48677,3.54547 -26.47628,-13.67979 -1.66865,-5.76072 -4.35957,-23.65654 -5.97982,-39.76848 -3.76926,-37.48223 -6.11324,-48.02738 -13.13757,-59.1036 -6.61012,-10.42307 -22.79936,-19.6883 -34.40161,-19.6883 -9.94385,0 -30.65779,10.28518 -74.046195,36.76643 -49.048837,29.93599 -63.385957,40.56564 -63.385957,46.99484 0,13.47192 16.23674,10.82623 87.612582,-14.27598 26.51915,-9.32654 48.87437,-16.95735 49.67826,-16.95735 3.79024,0 6.51186,13.39581 9.1796,45.18206 11.26023,134.16628 15.27588,190.40383 14.66205,205.33577 -0.38827,9.44492 -0.89099,15.15043 -1.11717,12.67891 z M 84.639496,164.62861 c 1.157201,-4.16688 2.122509,-13.94011 2.14513,-21.71828 0.112794,-38.7859 17.450094,-70.245083 50.976354,-92.498545 6.32287,-4.196881 22.20962,-13.354114 35.3039,-20.349408 28.81434,-15.393344 32.89915,-17.907549 32.89915,-20.2494187 0,-6.587553 -69.37558,14.8618247 -100.87384,31.1879317 -26.760925,13.870667 -37.509509,22.242402 -43.288594,33.716126 -14.836008,29.455224 -11.494271,68.138134 7.874868,91.157054 7.323574,8.70357 12.315439,8.28807 14.963032,-1.24546 z"
       style="fill:#f2f2f2;stroke-width:2.02031" />
  </g>
</svg>
