<?xml version="1.0" encoding="UTF-8" standalone="no"?>
<svg
   xmlns:dc="http://purl.org/dc/elements/1.1/"
   xmlns:cc="http://creativecommons.org/ns#"
   xmlns:rdf="http://www.w3.org/1999/02/22-rdf-syntax-ns#"
   xmlns:svg="http://www.w3.org/2000/svg"
   xmlns="http://www.w3.org/2000/svg"
   xmlns:sodipodi="http://sodipodi.sourceforge.net/DTD/sodipodi-0.dtd"
   xmlns:inkscape="http://www.inkscape.org/namespaces/inkscape"
   sodipodi:docname="redes.svg"
   inkscape:version="1.0 (4035a4fb49, 2020-05-01)"
   id="svg8"
   version="1.1"
   viewBox="0 0 105.83333 71.437497"
   height="270"
   width="400">
  <defs
     id="defs2">
    <pattern
       id="EMFhbasepattern"
       patternUnits="userSpaceOnUse"
       width="6"
       height="6"
       x="0"
       y="0" />
    <pattern
       id="EMFhbasepattern-3"
       patternUnits="userSpaceOnUse"
       width="6"
       height="6"
       x="0"
       y="0" />
    <pattern
       id="EMFhbasepattern-8"
       patternUnits="userSpaceOnUse"
       width="6"
       height="6"
       x="0"
       y="0" />
  </defs>
  <sodipodi:namedview
     units="px"
     inkscape:window-maximized="1"
     inkscape:window-y="-8"
     inkscape:window-x="-8"
     inkscape:window-height="837"
     inkscape:window-width="1600"
     fit-margin-bottom="0"
     fit-margin-right="0"
     fit-margin-left="0"
     fit-margin-top="0"
     showgrid="false"
     inkscape:document-rotation="0"
     inkscape:current-layer="layer1"
     inkscape:document-units="mm"
     inkscape:cy="194.93748"
     inkscape:cx="151.64217"
     inkscape:zoom="1.4"
     inkscape:pageshadow="2"
     inkscape:pageopacity="0.0"
     borderopacity="1.0"
     bordercolor="#666666"
     pagecolor="#ffffff"
     id="base" />
  <metadata
     id="metadata5">
    <rdf:RDF>
      <cc:Work
         rdf:about="">
        <dc:format>image/svg+xml</dc:format>
        <dc:type
           rdf:resource="http://purl.org/dc/dcmitype/StillImage" />
        <dc:title></dc:title>
      </cc:Work>
    </rdf:RDF>
  </metadata>
  <g
     transform="translate(-40.827043,-5.88277)"
     id="layer1"
     inkscape:groupmode="layer"
     inkscape:label="Capa 1">
    <path
       id="path56"
       d="m 215.33481,114.3413 c -4.31544,-0.78903 -6.41128,-1.45888 -9.9158,-3.16916 -8.11,-3.95783 -14.28375,-11.489952 -16.73517,-20.417273 -1.37225,-4.997303 -1.37182,-11.577922 0.001,-16.560408 1.08823,-3.949393 3.52853,-8.85068 5.69066,-11.429558 2.64097,-3.150023 4.74191,-5.097452 7.46559,-6.920093 4.39328,-2.939917 8.88488,-4.580354 14.41368,-5.264211 4.4632,-0.55205 4.61313,-0.502598 4.13093,1.362598 -0.18415,0.712356 -0.39369,1.907225 -0.46563,2.655264 -0.13079,1.360073 -0.13079,1.360073 -0.97802,1.491427 -1.15657,0.179317 -2.88317,1.396973 -4.07394,2.873088 -1.08417,1.343985 -2.83648,4.383049 -2.67649,4.641917 0.0553,0.08945 2.23415,0.16368 4.8419,0.164943 4.74139,0.0023 4.74139,0.0023 5.96808,2.584951 0.67469,1.420456 1.25737,2.661452 1.29485,2.757768 0.0375,0.09632 -3.1449,0.17512 -7.07197,0.17512 -7.14011,0 -7.14011,0 -7.38112,1.073359 -0.67245,2.994774 -1.25544,7.11099 -1.25544,8.864101 0,0.489461 0,0.489461 10.10817,0.489461 7.02392,0 10.14989,0.06745 10.2448,0.221036 0.075,0.121569 0.18596,1.363601 0.24626,2.760068 0.10967,2.539033 0.10967,2.539033 -10.14898,2.539033 -8.6981,0 -10.27567,0.04439 -10.37062,0.291819 -0.24217,0.631085 0.40815,5.642971 1.17581,9.061746 0.24101,1.073356 0.24101,1.073356 9.88705,1.073356 9.64606,0 9.64606,0 9.88517,-1.073356 0.64879,-2.912501 0.81906,-3.851435 0.9547,-5.264575 0.081,-0.843354 0.25116,-1.600965 0.37825,-1.683578 0.12709,-0.08262 1.31497,-0.151616 2.63976,-0.153338 1.90009,-0.0025 2.43234,0.05848 2.52068,0.288689 0.12807,0.333745 -0.2589,4.511366 -0.53164,5.73944 -0.52577,2.367428 -0.85781,2.16237 3.40047,2.1001 3.803,-0.0556 3.803,-0.0556 4.3469,-1.077853 1.14865,-2.158903 2.28491,-5.738647 2.57956,-8.126865 0.14503,-1.175585 0.14503,-1.175585 -1.71857,-1.175585 -1.8636,0 -1.8636,0 -1.8636,-2.121162 0,-1.166641 0.0574,-2.408672 0.12778,-2.760069 0.12779,-0.638906 0.12779,-0.638906 1.8636,-0.638906 1.73582,0 1.73582,0 1.59265,-1.175583 -0.0787,-0.646571 -0.32834,-1.8196 -0.55465,-2.606731 -0.22633,-0.787129 -0.45421,-1.615151 -0.50644,-1.840045 -0.0522,-0.224895 0.13385,-0.837733 0.41347,-1.361867 0.27963,-0.524132 0.98259,-1.881165 1.56216,-3.015629 0.57956,-1.134464 1.13186,-2.062662 1.22731,-2.062662 0.20703,0 1.1583,1.994472 1.90147,3.986764 2.15462,5.776052 2.47278,13.124845 0.82761,19.116026 -2.4518,8.928745 -8.56449,16.391743 -16.73516,20.432013 -2.73555,1.35268 -4.74441,2.07649 -7.52914,2.71279 -1.533,0.35029 -2.67835,0.43829 -6.27121,0.48182 -2.41761,0.0293 -4.62568,0.0112 -4.90679,-0.0402 z m 6.0574,-5.71838 c 1.74636,-0.72344 4.01327,-3.23769 5.37267,-5.95887 0.63834,-1.27781 0.63834,-1.27781 -7.03404,-1.27781 -7.67236,0 -7.67236,0 -6.97733,1.38013 1.34296,2.66679 3.41764,5.00281 5.13692,5.78402 1.02927,0.46768 2.47559,0.49764 3.50178,0.0725 z m -14.22919,-4.59911 c -0.56241,-1.16955 -1.02388,-2.24144 -1.02549,-2.38201 -0.002,-0.19034 -0.64025,-0.25556 -2.50015,-0.25556 -2.07913,0 -2.44708,0.045 -2.19783,0.26887 1.16481,1.04612 2.92624,2.41682 3.8667,3.00898 1.3322,0.83882 2.74952,1.61059 2.82496,1.53827 0.0299,-0.0287 -0.40579,-1.00901 -0.96819,-2.17855 z m 27.49221,0.34644 c 0.33738,-0.23561 0.65943,-0.47558 0.71564,-0.53326 0.0562,-0.0577 0.72324,-0.60275 1.48227,-1.21128 0.75901,-0.60853 1.38002,-1.13635 1.38002,-1.17295 0,-0.0366 -1.10403,-0.0666 -2.45339,-0.0666 -1.82485,0 -2.45415,0.0655 -2.45634,0.25556 -0.001,0.14057 -0.46162,1.20943 -1.02224,2.37525 -0.56062,1.16582 -1.01932,2.15984 -1.01932,2.20894 0,0.11698 2.5844,-1.30474 3.37336,-1.85573 z M 204.2221,95.303871 c -0.12619,-0.451519 -0.6596,-3.575569 -0.94052,-5.508409 -0.11756,-0.80879 -0.21373,-1.92983 -0.21373,-2.491196 0,-0.561368 -0.0897,-1.256663 -0.19939,-1.545102 -0.19939,-0.524433 -0.19939,-0.524433 -4.82812,-0.524433 -4.62873,0 -4.62873,0 -4.4837,1.175585 0.27113,2.197547 1.14224,5.102735 2.22226,7.411292 0.93809,2.005166 0.51,1.840044 4.77062,1.840044 3.49472,0 3.76521,-0.02634 3.67258,-0.357781 z m -1.28204,-16.22818 c 0.0703,-0.351397 0.12779,-1.046693 0.12779,-1.5451 0,-1.141752 0.80491,-6.636654 1.1557,-7.889699 0.0949,-0.338954 -0.14606,-0.358758 -3.73122,-0.306675 -3.83267,0.05567 -3.83267,0.05567 -4.30451,0.975703 -1.22549,2.389538 -2.34125,5.879108 -2.63118,8.229091 -0.14503,1.175583 -0.14503,1.175583 4.5553,1.175583 4.70034,0 4.70034,0 4.82812,-0.638903 z m 2.89946,-15.464622 c 0.11883,-0.08262 0.34162,-0.472216 0.49509,-0.86578 0.15346,-0.393565 0.63706,-1.438112 1.07467,-2.321212 0.4376,-0.883103 0.76128,-1.64 0.71928,-1.681997 -0.14964,-0.149644 -3.34589,1.827593 -4.67277,2.890636 -1.59868,1.280798 -2.02354,1.689159 -2.02354,1.944975 0,0.22311 4.08981,0.254083 4.40727,0.03338 z m 28.43212,18.651191 c -0.0701,-0.182691 -0.12746,-0.7835 -0.12746,-1.335134 0,-1.282708 -0.77727,-4.274776 -1.75215,-6.74488 -0.41896,-1.061529 -1.88985,-4.184112 -3.26864,-6.939069 -3.54454,-7.082314 -3.93399,-8.107876 -4.11471,-10.835822 -0.21046,-3.177025 0.77559,-5.732976 3.13717,-8.131771 1.12438,-1.142114 1.83592,-1.66208 3.06674,-2.241062 1.51741,-0.713796 1.73316,-0.758075 4.05605,-0.832403 2.09927,-0.06717 2.64017,-0.01558 3.7473,0.357498 3.33109,1.122466 5.87205,3.67137 6.98753,7.009352 0.40129,1.200859 0.44683,1.667114 0.3594,3.680091 -0.12936,2.978653 -0.62567,4.357793 -3.91967,10.891893 -2.80935,5.572698 -3.34289,6.739041 -4.06836,8.893551 -0.56243,1.670318 -1.13724,4.327515 -1.21624,5.622362 -0.0499,0.817797 -0.0499,0.817797 -1.4047,0.877677 -1.09845,0.04855 -1.37891,-0.0029 -1.48226,-0.272283 z m 3.57775,-21.549599 c 1.01007,-0.448126 2.2019,-1.603725 2.75346,-2.66971 0.56382,-1.089719 0.50959,-3.529173 -0.10226,-4.600113 -0.6419,-1.123538 -1.18922,-1.683418 -2.26741,-2.319512 -0.77527,-0.457392 -1.16123,-0.542775 -2.45339,-0.542749 -1.311,2.7e-5 -1.68915,0.08635 -2.60762,0.59521 -1.83297,1.015552 -2.7093,2.568802 -2.70615,4.796525 0.005,2.917513 2.24273,5.110239 5.23667,5.12938 0.81094,0.0052 1.567,-0.131828 2.14672,-0.389031 z"
       style="fill:#000000;stroke-width:0.20445" />
    <path
       id="path71"
       d="m 61.931391,63.785246 c -2.776994,-0.33735 -5.058392,-1.01543 -7.69429,-2.28689 -11.301852,-5.4516 -16.020859,-18.93627 -10.5388,-30.114839 3.840815,-7.831882 11.860103,-12.856528 20.518898,-12.856528 12.375958,0 22.723619,10.32418 22.723619,22.672057 0,8.11727 -4.552622,15.75411 -11.832417,19.84841 -1.897694,1.06729 -5.88591,2.36943 -7.94372,2.59358 -3.159547,0.34416 -3.50829,0.35377 -5.23329,0.14421 z m 4.033779,-15.59432 c 0,-4.54239 0.07806,-5.92113 0.336148,-5.93739 0.184881,-0.0117 1.076556,-0.004 1.981499,0.0173 1.904662,0.0445 1.864004,0.0951 2.135262,-2.65775 0.1882,-1.90993 0.1882,-1.90993 -2.132355,-1.90993 -2.320554,0 -2.320554,0 -2.320554,-1.86493 0,-1.02571 0.112371,-2.160481 0.249715,-2.521722 0.303251,-0.797611 1.510321,-1.260641 3.286354,-1.260641 1.304465,0 1.304465,0 1.304465,-1.845294 0,-1.845293 0,-1.845293 -1.731537,-2.022695 -3.403688,-0.348718 -5.470654,0.468648 -6.763386,2.674528 -0.620845,1.059392 -0.749579,1.651146 -0.88884,4.085754 -0.162846,2.84695 -0.162846,2.84695 -2.112506,2.78293 -1.94966,-0.064 -1.94966,-0.064 -1.94966,2.25787 0,2.3219 0,2.3219 1.884183,2.26079 1.0363,-0.0336 1.952892,0.008 2.036871,0.0916 0.08398,0.084 0.139464,2.76565 0.1233,5.95927 -0.02939,5.80659 -0.02939,5.80659 2.265826,5.80659 2.295215,0 2.295215,0 2.295215,-5.91621 z m 54.32155,15.42753 c -6.06416,-1.1683 -11.24562,-4.24854 -14.64248,-8.70457 -1.67648,-2.19923 -2.70518,-4.15434 -3.68181,-6.99749 -0.83202,-2.4222 -0.87631,-2.74995 -0.8895,-6.58289 -0.0154,-4.46407 0.27237,-5.91085 1.88122,-9.459119 1.16753,-2.574951 2.25945,-4.156287 4.39407,-6.363561 7.72796,-7.990984 19.85584,-9.258114 29.09188,-3.03954 1.91974,1.292557 4.8732,4.225447 6.06851,6.026256 1.22626,1.847448 2.61625,4.865963 3.18645,6.919754 0.24639,0.88743 0.51284,3.12618 0.59212,4.97499 0.12135,2.82976 0.0547,3.73587 -0.42167,5.72833 -1.08336,4.53165 -3.19399,8.19436 -6.56883,11.39934 -2.52336,2.39636 -5.45919,4.14437 -8.79105,5.23423 -2.23318,0.73048 -2.99474,0.84561 -6.05067,0.91472 -1.92277,0.0435 -3.79847,0.0208 -4.16824,-0.0505 z m 10.24601,-11.70733 c 1.21538,-0.41693 3.02372,-1.91286 3.79057,-3.13571 0.59293,-0.94552 0.62312,-1.25489 0.70438,-7.2162 0.0969,-7.107278 -0.0416,-7.744587 -2.08299,-9.588891 -2.02996,-1.833945 -2.39233,-1.908815 -9.29648,-1.920728 -5.94384,-0.01026 -6.23473,0.01375 -7.45656,0.61551 -1.84392,0.908137 -3.5916,2.95888 -3.95141,4.636609 -0.46047,2.14711 -0.37283,10.36129 0.12856,12.04967 0.50233,1.69153 1.89598,3.32194 3.59724,4.20837 1.18752,0.61875 1.4335,0.64032 7.44035,0.65243 4.06139,0.008 6.52872,-0.096 7.12634,-0.30106 z m -9.57371,-1.03664 c -2.07067,-0.077 -4.0838,-0.28056 -4.47361,-0.45225 -1.08708,-0.4788 -2.53144,-2.10963 -2.86601,-3.23603 -0.40761,-1.37227 -0.47896,-10.38924 -0.0933,-11.78899 0.17138,-0.62203 0.73889,-1.534179 1.31268,-2.109864 1.84617,-1.852255 2.01929,-1.894419 8.17186,-1.990177 6.33942,-0.09867 7.28868,0.06273 8.89684,1.512634 1.89423,1.707819 2.08142,2.432947 2.08818,8.089117 0.004,2.94457 -0.11823,5.3581 -0.30105,5.96831 -0.41133,1.3729 -1.64987,2.82484 -3.01331,3.53251 -1.24563,0.64653 -2.91485,0.72804 -9.72229,0.47474 z m 5.64729,-4.23667 c 3.64859,-1.99115 4.38114,-6.74409 1.51558,-9.83333 -2.32244,-2.503719 -6.73551,-2.480762 -9.11571,0.0474 -2.32164,2.466 -2.21104,6.54333 0.23926,8.82016 1.42728,1.32624 2.34356,1.69012 4.26831,1.69505 1.40123,0.004 2.01468,-0.14107 3.09256,-0.7293 z m -4.18688,-0.57969 c -1.2973,-0.25275 -2.84391,-1.53921 -3.33948,-2.77774 -1.39628,-3.48967 0.80373,-6.97988 4.43075,-7.02916 1.75778,-0.0239 2.90878,0.55478 4.14277,2.08277 0.75247,0.93173 0.83516,1.21651 0.83418,2.87262 -0.001,2.09755 -0.41354,2.86879 -2.1756,4.06982 -1.17602,0.80158 -2.4635,1.06013 -3.89262,0.78169 z m 8.48334,-10.49948 c 0.45362,-0.50125 0.455,-0.56986 0.0247,-1.226611 -0.54259,-0.82809 -1.38856,-0.803405 -1.957,0.0571 -0.34753,0.526081 -0.33022,0.641811 0.17087,1.142901 0.69737,0.69738 1.14824,0.70419 1.76144,0.0266 z"
       style="fill:#000000;stroke-width:0.268919" />
  </g>
</svg>
